<?xml version="1.0"?>
<!-- Generated by graphviz version 2.38.0 (20140413.2041)
 -->
<!-- Title: G Pages: 1 -->
<svg xmlns="http://www.w3.org/2000/svg" xmlns:xlink="http://www.w3.org/1999/xlink" viewBox="0.00 0.00 302.00 282.48"><svg:style xmlns:svg="http://www.w3.org/2000/svg">
text
	{
	 font-size:12px;fill:#800040;font-family:"Latin Modern Roman",Serif;
	}
ellipse
	{
	 fill:#ffffff;stroke-width:2px,stroke:rgb(0,0,0)
	}
</svg:style>
<g id="graph0" class="graph" transform="scale(1 1) rotate(0) translate(4 278.477)">
<title>G</title>

<!-- callsite -->
<g id="node1" class="node"><title>callsite</title>
<text text-anchor="middle" x="29" y="-14.3">Callsite</text>
</g>
<!-- info -->
<g id="node2" class="node"><title>info</title>
<text text-anchor="middle" x="149" y="-14.3">Information flow</text>
</g>
<!-- callsite&#45;&gt;info -->
<g id="edge10" class="edge"><title>callsite-&gt;info</title>
<path fill="none" stroke="black" d="M66.2873,-18C71.8256,-18 77.679,-18 83.6056,-18"/>
<ellipse fill="black" stroke="black" cx="62.2639" cy="-18" rx="4" ry="4"/>
<polygon fill="black" stroke="black" points="83.6061,-21.5001 93.6061,-18 83.6061,-14.5001 83.6061,-21.5001"/>
</g>
<!-- ui -->
<g id="node3" class="node"><title>ui</title>
<polygon fill="none" stroke="black" points="294,-255 240,-255 240,-219 294,-219 294,-255"/>
<text text-anchor="middle" x="267" y="-233.3">UI</text>
</g>
<!-- pump_0 -->
<g id="node5" class="node"><title>pump_0</title>
<ellipse fill="none" stroke="black" cx="149" cy="-91" rx="37.4533" ry="37.4533"/>
<text text-anchor="middle" x="149" y="-102.3">MIDI</text>
<text text-anchor="middle" x="149" y="-87.3">input</text>
<text text-anchor="middle" x="149" y="-72.3">queue</text>
</g>
<!-- ui&#45;&gt;pump_0 -->
<g id="edge2" class="edge"><title>ui:s-&gt;pump_0:e</title>
<path fill="none" stroke="black" d="M262.727,-211.131C249.35,-189.625 208.28,-123.603 193.43,-99.7292"/>
<ellipse fill="black" stroke="black" cx="264.887" cy="-214.603" rx="4.00002" ry="4.00002"/>
<polygon fill="black" stroke="black" points="196.254,-97.6425 188,-91 190.31,-101.34 196.254,-97.6425"/>
</g>
<!-- session -->
<g id="node7" class="node"><title>session</title>
<polygon fill="none" stroke="black" points="191,-182 107,-182 107,-146 191,-146 191,-182"/>
<text text-anchor="middle" x="149" y="-160.3">Session data</text>
</g>
<!-- ui&#45;&gt;session -->
<g id="edge1" class="edge"><title>ui-&gt;session</title>
<path fill="none" stroke="black" d="M232.921,-220.477C218.144,-210.494 204,-200 204,-200 204,-200 192.405,-194.203 179.961,-187.085"/>
<ellipse fill="black" stroke="black" cx="236.375" cy="-222.773" rx="4.00002" ry="4.00002"/>
<polygon fill="black" stroke="black" points="181.734,-184.067 171.342,-182.002 178.178,-190.097 181.734,-184.067"/>
</g>
<!-- engine -->
<g id="node4" class="node"><title>engine</title>
<polygon fill="none" stroke="black" points="56.5,-182 1.5,-182 1.5,-146 56.5,-146 56.5,-182"/>
<text text-anchor="middle" x="29" y="-160.3">Engine</text>
</g>
<!-- engine&#45;&gt;pump_0 -->
<!-- pump_1 -->
<g id="node6" class="node"><title>pump_1</title>
<ellipse fill="none" stroke="black" cx="149" cy="-237" rx="37.4533" ry="37.4533"/>
<text text-anchor="middle" x="149" y="-248.3">UI</text>
<text text-anchor="middle" x="149" y="-233.3">input</text>
<text text-anchor="middle" x="149" y="-218.3">queue</text>
</g>
<!-- engine&#45;&gt;pump_1 -->
<g id="edge5" class="edge"><title>engine-&gt;pump_1:w</title>
<path fill="none" stroke="black" d="M55.8374,-187.577C72.0912,-202.408 91.9275,-220.509 102.506,-230.162"/>
<ellipse fill="black" stroke="black" cx="52.73" cy="-184.741" rx="4.00002" ry="4.00002"/>
<polygon fill="black" stroke="black" points="100.254,-232.845 110,-237 104.972,-227.674 100.254,-232.845"/>
</g>
<!-- engine&#45;&gt;session -->
<g id="edge4" class="edge"><title>engine-&gt;session</title>
<path fill="none" stroke="black" d="M65.1111,-157.768C75.0798,-157.312 86.1432,-157.157 96.8549,-157.303"/>
<ellipse fill="black" stroke="black" cx="60.7697" cy="-158.013" rx="4" ry="4"/>
<polygon fill="black" stroke="black" points="96.892,-160.805 106.97,-157.536 97.0532,-153.807 96.892,-160.805"/>
</g>
<!-- pump_0&#45;&gt;engine -->
<g id="edge6" class="edge"><title>pump_0:w-&gt;engine:s</title>
<path fill="none" stroke="black" d="M101.679,-96.5472C85.6468,-107.235 50.7501,-130.5 35.906,-140.396"/>
<polygon fill="black" stroke="black" points="111.941,-93.9122 101.679,-96.547 108.059,-88.0878 111.941,-93.9122"/>
<ellipse fill="black" stroke="black" cx="32.3282" cy="-142.781" rx="4.00002" ry="4.00002"/>
</g>
<!-- pump_1&#45;&gt;ui -->
<g id="edge7" class="edge"><title>pump_1:e-&gt;ui</title>
<path fill="none" stroke="black" stroke-dasharray="5,2" d="M196.108,-237C204.091,-237 216.862,-237 229.317,-237"/>
<ellipse fill="black" stroke="black" cx="192" cy="-237" rx="4" ry="4"/>
<polygon fill="black" stroke="black" points="229.593,-240.5 239.593,-237 229.593,-233.5 229.593,-240.5"/>
</g>
<!-- session&#45;&gt;ui -->
<g id="edge8" class="edge"><title>session-&gt;ui</title>
<path fill="none" stroke="black" d="M200.373,-180.222C202.648,-181.324 204,-182 204,-182 204,-182 225.943,-198.28 243.721,-213.365"/>
<polygon fill="black" stroke="black" points="192.699,-172.722 200.243,-180.161 189.707,-179.051 192.699,-172.722"/>
<ellipse fill="black" stroke="black" cx="247.011" cy="-216.216" rx="4.00002" ry="4.00002"/>
</g>
<!-- session&#45;&gt;engine -->
<g id="edge9" class="edge"><title>session-&gt;engine</title>
<path fill="none" stroke="black" d="M96.8549,-170.697C86.1432,-170.843 75.0798,-170.688 65.1111,-170.232"/>
<polygon fill="black" stroke="black" points="107.051,-173.963 96.9726,-170.694 106.889,-166.965 107.051,-173.963"/>
<ellipse fill="black" stroke="black" cx="60.7697" cy="-169.987" rx="4" ry="4"/>
</g>
</g>
</svg>
