<?xml version="1.0"?>
<!-- Generated by graphviz version 2.38.0 (20140413.2041)
 -->
<!-- Title: playsec Pages: 1 -->
<svg xmlns="http://www.w3.org/2000/svg" xmlns:xlink="http://www.w3.org/1999/xlink" viewBox="0.00 0.00 532.08 98.00"><svg:style xmlns:svg="http://www.w3.org/2000/svg">
text
	{
	 font-size:12px;fill:#800040;font-family:"Latin Modern Roman",Serif;
	}
ellipse
	{
	 fill:#ffffff;stroke-width:2px,stroke:rgb(0,0,0)
	}
</svg:style>
<g id="graph0" class="graph" transform="scale(1 1) rotate(0) translate(4 94)">
<title>playsec</title>

<!-- Begin -->
<g id="node1" class="node"><title>Begin</title>
<ellipse fill="none" stroke="black" cx="52.5" cy="-72" rx="31.6951" ry="18"/>
<text text-anchor="middle" x="52.5" y="-68.3">Begin</text>
</g>
<!-- Loop begin -->
<g id="node2" class="node"><title>Loop begin</title>
<ellipse fill="none" stroke="black" cx="193.345" cy="-72" rx="51.1914" ry="18"/>
<text text-anchor="middle" x="193.345" y="-68.3">Loop begin</text>
</g>
<!-- Begin&#45;&gt;Loop begin -->
<g id="edge1" class="edge"><title>Begin-&gt;Loop begin</title>
<path fill="none" stroke="black" d="M84.6596,-72C98.6303,-72 115.607,-72 131.912,-72"/>
<polygon fill="black" stroke="black" points="131.944,-75.5001 141.944,-72 131.944,-68.5001 131.944,-75.5001"/>
</g>
<!-- Loop end -->
<g id="node3" class="node"><title>Loop end</title>
<ellipse fill="none" stroke="black" cx="388.887" cy="-71" rx="44.393" ry="18"/>
<text text-anchor="middle" x="388.887" y="-67.3">Loop end</text>
</g>
<!-- Loop begin&#45;&gt;Loop end -->
<g id="edge2" class="edge"><title>Loop begin-&gt;Loop end</title>
<path fill="none" stroke="black" d="M241.712,-78.268C248.734,-78.987 255.893,-79.6035 262.691,-80 291.087,-81.6563 298.322,-82.0749 326.691,-80 330.332,-79.7337 334.086,-79.3793 337.858,-78.965"/>
<polygon fill="black" stroke="black" points="338.318,-82.4349 347.82,-77.7477 337.469,-75.4866 338.318,-82.4349"/>
</g>
<!-- Loop end&#45;&gt;Loop begin -->
<g id="edge4" class="edge"><title>Loop end-&gt;Loop begin</title>
<path fill="none" stroke="black" d="M360.26,-57.0602C349.99,-52.5963 338.065,-48.2337 326.691,-46 298.78,-40.5187 290.667,-40.8584 262.691,-46 253.338,-47.7189 243.607,-50.6579 234.52,-53.9559"/>
<polygon fill="black" stroke="black" points="233.036,-50.7765 224.961,-57.6346 235.551,-57.3095 233.036,-50.7765"/>
<text text-anchor="middle" x="294.691" y="-64.8">Loop and</text>
<text text-anchor="middle" x="294.691" y="-49.8">not stopped</text>
</g>
<!-- End -->
<g id="node4" class="node"><title>End</title>
<ellipse fill="none" stroke="black" cx="497.083" cy="-71" rx="27" ry="18"/>
<text text-anchor="middle" x="497.083" y="-67.3">End</text>
</g>
<!-- Loop end&#45;&gt;End -->
<g id="edge3" class="edge"><title>Loop end-&gt;End</title>
<path fill="none" stroke="black" d="M433.387,-71C442.087,-71 451.142,-71 459.576,-71"/>
<polygon fill="black" stroke="black" points="459.854,-74.5001 469.854,-71 459.854,-67.5001 459.854,-74.5001"/>
</g>
<!-- Sample position -->
<g id="node5" class="node"><title>Sample position</title>
<text text-anchor="middle" x="52.5" y="-14.3">Sample position</text>
</g>
<!-- Sample position&#45;&gt;Loop begin -->
<!-- dummy -->
<!-- Sample position&#45;&gt;dummy -->
<g id="edge5" class="edge"><title>Sample position-&gt;dummy</title>
<path fill="none" stroke="black" d="M105.201,-18C118.091,-18 131.855,-18 144.548,-18"/>
<polygon fill="black" stroke="black" points="144.915,-21.5001 154.915,-18 144.915,-14.5001 144.915,-21.5001"/>
</g>
</g>
</svg>
