<?xml version="1.0"?>
<!-- Generated by graphviz version 2.38.0 (20140413.2041)
 -->
<!-- Title: signalflow Pages: 1 -->
<svg xmlns="http://www.w3.org/2000/svg" xmlns:xlink="http://www.w3.org/1999/xlink" viewBox="0.00 0.00 653.00 215.00"><svg:style xmlns:svg="http://www.w3.org/2000/svg">
text
	{
	 font-size:12px;fill:#800040;font-family:"Latin Modern Roman",Serif;
	}
ellipse
	{
	 fill:#ffffff;stroke-width:2px,stroke:rgb(0,0,0)
	}
</svg:style>
<g id="graph0" class="graph" transform="scale(1 1) rotate(0) translate(4 211)">
<title>signalflow</title>

<!-- Computer\nkeyboard -->
<g id="node1" class="node"><title>Computer\nkeyboard</title>
<text text-anchor="middle" x="41" y="-76.8">Computer</text>
<text text-anchor="middle" x="41" y="-61.8">keyboard</text>
</g>
<!-- junction_2 -->
<!-- Computer\nkeyboard&#45;&gt;junction_2 -->
<g id="edge1" class="edge"><title>Computer\nkeyboard-&gt;junction_2</title>
<path fill="none" stroke="#a00000" d="M85.0592,-73C101.61,-73 116.857,-73 117.939,-73"/>
<ellipse fill="#a00000" stroke="#a00000" cx="80.8859" cy="-73" rx="4" ry="4"/>
</g>
<!-- MIDI out -->
<g id="node3" class="node"><title>MIDI out</title>
<text text-anchor="middle" x="600.5" y="-74.3">MIDI out</text>
</g>
<!-- junction_2&#45;&gt;MIDI out -->
<g id="edge2" class="edge"><title>junction_2-&gt;MIDI out</title>
<path fill="none" stroke="#a00000" d="M119.078,-72.9993C122.349,-72.969 227,-72 227,-72 227,-72 227,-72 411,-72 411,-72 499.77,-74.8256 555.474,-76.5987"/>
<polygon fill="#a00000" stroke="#a00000" points="555.694,-80.1073 565.8,-76.9273 555.916,-73.1109 555.694,-80.1073"/>
</g>
<!-- junction_0 -->
<g id="node4" class="node"><title>junction_0</title>
<ellipse fill="none" stroke="black" cx="157" cy="-128" rx="2" ry="2"/>
</g>
<!-- junction_2&#45;&gt;junction_0 -->
<g id="edge3" class="edge"><title>junction_2-&gt;junction_0</title>
<path fill="none" stroke="#a00000" d="M119.106,-73.1578C121.073,-76.0814 149.775,-118.747 155.14,-126.721"/>
</g>
<!-- Playback\ncontrol -->
<g id="node7" class="node"><title>Playback\ncontrol</title>
<polygon fill="none" stroke="black" points="261,-147 195,-147 195,-109 261,-109 261,-147"/>
<text text-anchor="middle" x="228" y="-131.8">Playback</text>
<text text-anchor="middle" x="228" y="-116.8">control</text>
</g>
<!-- junction_0&#45;&gt;Playback\ncontrol -->
<g id="edge7" class="edge"><title>junction_0-&gt;Playback\ncontrol</title>
<path fill="none" stroke="#a00000" d="M159.198,-128C162.603,-128 172.84,-128 184.362,-128"/>
<polygon fill="#a00000" stroke="#a00000" points="184.678,-131.5 194.678,-128 184.678,-124.5 184.678,-131.5"/>
</g>
<!-- MIDI in -->
<g id="node5" class="node"><title>MIDI in</title>
<text text-anchor="middle" x="41" y="-124.3">MIDI in</text>
</g>
<!-- MIDI in&#45;&gt;junction_2 -->
<!-- MIDI in&#45;&gt;junction_0 -->
<!-- MIDI in&#45;&gt;junction_0 -->
<g id="edge6" class="edge"><title>MIDI in-&gt;junction_0</title>
<path fill="none" stroke="#a00000" d="M80.5497,-134.425C110.822,-135.527 148.877,-133.826 155.116,-129.324"/>
<ellipse fill="#a00000" stroke="#a00000" cx="76.2463" cy="-134.226" rx="4" ry="4"/>
</g>
<!-- dummy_0 -->
<!-- dummy_0&#45;&gt;MIDI out -->
<!-- Audition -->
<g id="node9" class="node"><title>Audition</title>
<text text-anchor="middle" x="600.5" y="-185.3">Audition</text>
</g>
<!-- dummy_0&#45;&gt;Audition -->
<!-- Playback\nchannel ports -->
<g id="node12" class="node"><title>Playback\nchannel ports</title>
<text text-anchor="middle" x="600.5" y="-137.8">Playback</text>
<text text-anchor="middle" x="600.5" y="-122.8">channel ports</text>
</g>
<!-- dummy_0&#45;&gt;Playback\nchannel ports -->
<!-- Gain\nadjustment -->
<g id="node8" class="node"><title>Gain\nadjustment</title>
<polygon fill="none" stroke="black" points="374,-147 297,-147 297,-109 374,-109 374,-147"/>
<text text-anchor="middle" x="335.5" y="-131.8">Gain</text>
<text text-anchor="middle" x="335.5" y="-116.8">adjustment</text>
</g>
<!-- Playback\ncontrol&#45;&gt;Gain\nadjustment -->
<g id="edge8" class="edge"><title>Playback\ncontrol-&gt;Gain\nadjustment</title>
<path fill="none" stroke="#0000a0" stroke-width="5" d="M261.227,-121.726C269.328,-121.331 278.194,-121.182 286.873,-121.278"/>
<polygon fill="#0000a0" stroke="#0000a0" stroke-width="5" points="286.823,-125.653 296.919,-121.504 287.02,-116.905 286.823,-125.653"/>
</g>
<!-- Playback\ncontrol&#45;&gt;Gain\nadjustment -->
<g id="edge10" class="edge"><title>Playback\ncontrol-&gt;Gain\nadjustment</title>
<path fill="none" stroke="#00a000" stroke-width="5" d="M261.227,-134.274C269.328,-134.669 278.194,-134.818 286.873,-134.722"/>
<polygon fill="#00a000" stroke="#00a000" stroke-width="5" points="287.02,-139.095 296.919,-134.496 286.823,-130.347 287.02,-139.095"/>
</g>
<!-- Playback\ncontrol&#45;&gt;Audition -->
<g id="edge9" class="edge"><title>Playback\ncontrol-&gt;Audition</title>
<path fill="none" stroke="#0000a0" d="M261.009,-141.18C278.646,-148.442 297,-156 297,-156 297,-156 474.958,-175.414 557.886,-184.46"/>
<polygon fill="#0000a0" stroke="#0000a0" points="557.663,-187.957 567.983,-185.562 558.422,-180.998 557.663,-187.957"/>
</g>
<!-- junction_1 -->
<!-- Gain\nadjustment&#45;&gt;junction_1 -->
<g id="edge11" class="edge"><title>Gain\nadjustment-&gt;junction_1</title>
<path fill="none" stroke="#0000a0" stroke-width="5" d="M374.111,-125.441C391.63,-124.25 408.887,-123.076 409.948,-123.004"/>
</g>
<!-- junction_1&#45;&gt;dummy_0 -->
<!-- Channel\nmixer -->
<g id="node11" class="node"><title>Channel\nmixer</title>
<polygon fill="none" stroke="black" points="514.5,-42 452.5,-42 452.5,-4 514.5,-4 514.5,-42"/>
<text text-anchor="middle" x="483.5" y="-26.8">Channel</text>
<text text-anchor="middle" x="483.5" y="-11.8">mixer</text>
</g>
<!-- junction_1&#45;&gt;Channel\nmixer -->
<g id="edge12" class="edge"><title>junction_1-&gt;Channel\nmixer</title>
<path fill="none" stroke="#0000a0" stroke-width="5" d="M411.052,-122.928C412.454,-120.966 442.025,-79.6082 462.679,-50.7215"/>
<polygon fill="#0000a0" stroke="#0000a0" stroke-width="5" points="466.504,-52.8936 468.762,-42.2144 459.387,-47.8044 466.504,-52.8936"/>
</g>
<!-- junction_1&#45;&gt;Playback\nchannel ports -->
<g id="edge13" class="edge"><title>junction_1-&gt;Playback\nchannel ports</title>
<path fill="none" stroke="#0000a0" stroke-width="5" d="M411.103,-123.026C413.215,-123.554 447,-132 447,-132 447,-132 501.857,-132.719 545.769,-133.295"/>
<polygon fill="#0000a0" stroke="#0000a0" stroke-width="5" points="545.743,-137.67 555.8,-133.427 545.858,-128.921 545.743,-137.67"/>
</g>
<!-- Master out -->
<g id="node14" class="node"><title>Master out</title>
<text text-anchor="middle" x="600.5" y="-19.3">Master out</text>
</g>
<!-- Channel\nmixer&#45;&gt;Master out -->
<g id="edge18" class="edge"><title>Channel\nmixer-&gt;Master out</title>
<path fill="none" stroke="#0000a0" d="M514.715,-23C526.049,-23 539.224,-23 551.761,-23"/>
<polygon fill="#0000a0" stroke="#0000a0" points="552.088,-26.5001 562.088,-23 552.088,-19.5001 552.088,-26.5001"/>
</g>
<!-- Master gain -->
<g id="node13" class="node"><title>Master gain</title>
<text text-anchor="middle" x="41" y="-14.3">Master gain</text>
</g>
<!-- Master gain&#45;&gt;junction_2 -->
<!-- Master gain&#45;&gt;Channel\nmixer -->
<g id="edge17" class="edge"><title>Master gain-&gt;Channel\nmixer</title>
<path fill="none" stroke="#00a000" d="M90.407,-18.4246C121.462,-18.697 156,-19 156,-19 156,-19 156,-19 336.5,-19 336.5,-19 398.789,-20.7066 441.996,-21.8903"/>
<ellipse fill="#00a000" stroke="#00a000" cx="86.192" cy="-18.3877" rx="4" ry="4"/>
<polygon fill="#00a000" stroke="#00a000" points="442.157,-25.3959 452.249,-22.1712 442.348,-18.3985 442.157,-25.3959"/>
</g>
</g>
</svg>
