<?xml version="1.0"?>
<!-- Generated by graphviz version 2.38.0 (20140413.2041)
 -->
<!-- Title: signalflow Pages: 1 -->
<svg xmlns="http://www.w3.org/2000/svg" xmlns:xlink="http://www.w3.org/1999/xlink" viewBox="0.00 0.00 653.00 238.60"><svg:style xmlns:svg="http://www.w3.org/2000/svg">
text
	{
	 font-size:12px;fill:#800040;font-family:"Latin Modern Roman",Serif;
	}
ellipse
	{
	 fill:#ffffff;stroke-width:2px,stroke:rgb(0,0,0)
	}
</svg:style>
<g id="graph0" class="graph" transform="scale(1 1) rotate(0) translate(4 234.597)">
<title>signalflow</title>

<!-- Computer\nkeyboard -->
<g id="node1" class="node"><title>Computer\nkeyboard</title>
<text text-anchor="middle" x="41" y="-139.8">Computer</text>
<text text-anchor="middle" x="41" y="-124.8">keyboard</text>
</g>
<!-- junction_2 -->
<!-- Computer\nkeyboard&#45;&gt;junction_2 -->
<g id="edge1" class="edge"><title>Computer\nkeyboard-&gt;junction_2</title>
<path fill="none" stroke="#a00000" d="M85.0592,-135.433C101.61,-135.216 116.857,-135.015 117.939,-135.001"/>
<ellipse fill="#a00000" stroke="#a00000" cx="80.8856" cy="-135.488" rx="4" ry="4"/>
</g>
<!-- MIDI out -->
<g id="node3" class="node"><title>MIDI out</title>
<text text-anchor="middle" x="600.5" y="-124.3">MIDI out</text>
</g>
<!-- junction_2&#45;&gt;MIDI out -->
<g id="edge2" class="edge"><title>junction_2-&gt;MIDI out</title>
<path fill="none" stroke="#a00000" d="M119.044,-135C120.872,-135 179.75,-135 227,-135 227,-135 227,-135 411,-135 460.541,-135 517.355,-132.556 555.547,-130.556"/>
<polygon fill="#a00000" stroke="#a00000" points="556.005,-134.036 565.804,-130.006 555.63,-127.046 556.005,-134.036"/>
</g>
<!-- junction_0 -->
<g id="node4" class="node"><title>junction_0</title>
<ellipse fill="none" stroke="black" cx="157" cy="-96" rx="2" ry="2"/>
</g>
<!-- junction_2&#45;&gt;junction_0 -->
<g id="edge3" class="edge"><title>junction_2-&gt;junction_0</title>
<path fill="none" stroke="#a00000" d="M119.106,-134.888C121.073,-132.815 149.775,-102.561 155.14,-96.9066"/>
</g>
<!-- Playback\ncontrol -->
<g id="node7" class="node"><title>Playback\ncontrol</title>
<polygon fill="none" stroke="black" points="261,-107 195,-107 195,-69 261,-69 261,-107"/>
<text text-anchor="middle" x="228" y="-91.8">Playback</text>
<text text-anchor="middle" x="228" y="-76.8">control</text>
</g>
<!-- junction_0&#45;&gt;Playback\ncontrol -->
<g id="edge7" class="edge"><title>junction_0-&gt;Playback\ncontrol</title>
<path fill="none" stroke="#a00000" d="M159.198,-95.8611C162.637,-95.4624 173.048,-94.2554 184.711,-92.903"/>
<polygon fill="#a00000" stroke="#a00000" points="185.148,-96.376 194.678,-91.7475 184.342,-89.4225 185.148,-96.376"/>
</g>
<!-- MIDI in -->
<g id="node5" class="node"><title>MIDI in</title>
<text text-anchor="middle" x="41" y="-77.3">MIDI in</text>
</g>
<!-- MIDI in&#45;&gt;junction_2 -->
<!-- MIDI in&#45;&gt;junction_0 -->
<!-- MIDI in&#45;&gt;junction_0 -->
<g id="edge6" class="edge"><title>MIDI in:e-&gt;junction_0</title>
<path fill="none" stroke="#a00000" d="M81.1247,-81.5516C103.529,-84.0189 147.317,-93.9968 154.876,-95.7396"/>
<ellipse fill="#a00000" stroke="#a00000" cx="76.9908" cy="-81.271" rx="4" ry="4"/>
</g>
<!-- dummy_0 -->
<!-- dummy_0&#45;&gt;MIDI out -->
<!-- Audition -->
<g id="node9" class="node"><title>Audition</title>
<text text-anchor="middle" x="600.5" y="-14.3">Audition</text>
</g>
<!-- dummy_0&#45;&gt;Audition -->
<!-- Playback\nchannel ports -->
<g id="node12" class="node"><title>Playback\nchannel ports</title>
<text text-anchor="middle" x="600.5" y="-76.8">Playback</text>
<text text-anchor="middle" x="600.5" y="-61.8">channel ports</text>
</g>
<!-- dummy_0&#45;&gt;Playback\nchannel ports -->
<!-- Gain\nadjustment -->
<g id="node8" class="node"><title>Gain\nadjustment</title>
<polygon fill="none" stroke="black" points="374,-107 297,-107 297,-69 374,-69 374,-107"/>
<text text-anchor="middle" x="335.5" y="-91.8">Gain</text>
<text text-anchor="middle" x="335.5" y="-76.8">adjustment</text>
</g>
<!-- Playback\ncontrol&#45;&gt;Gain\nadjustment -->
<g id="edge8" class="edge"><title>Playback\ncontrol-&gt;Gain\nadjustment:w</title>
<path fill="none" stroke="#0000a0" stroke-width="5" d="M261.169,-88C269.31,-88 278.221,-88 286.929,-88"/>
<polygon fill="#0000a0" stroke="#0000a0" stroke-width="5" points="287,-92.3751 297,-88 287,-83.6251 287,-92.3751"/>
</g>
<!-- Playback\ncontrol&#45;&gt;Gain\nadjustment -->
<g id="edge10" class="edge"><title>Playback\ncontrol-&gt;Gain\nadjustment:n</title>
<path fill="none" stroke="#00a000" stroke-width="5" d="M261.243,-100.172C284.507,-108.288 314.142,-117.089 327.877,-114.838"/>
<polygon fill="#00a000" stroke="#00a000" stroke-width="5" points="330.977,-117.934 335.5,-108 325.135,-111.42 330.977,-117.934"/>
</g>
<!-- Playback\ncontrol&#45;&gt;Audition -->
<g id="edge9" class="edge"><title>Playback\ncontrol-&gt;Audition:w</title>
<path fill="none" stroke="#0000a0" d="M261.307,-72.8722C272.422,-68.1618 285.073,-63.3343 297,-60 410.441,-28.2861 443.422,-18.5489 556.413,-18.0228"/>
<polygon fill="#0000a0" stroke="#0000a0" points="556.508,-21.5227 566.5,-18 556.492,-14.5228 556.508,-21.5227"/>
</g>
<!-- junction_1 -->
<!-- Gain\nadjustment&#45;&gt;junction_1 -->
<g id="edge11" class="edge"><title>Gain\nadjustment-&gt;junction_1</title>
<path fill="none" stroke="#0000a0" stroke-width="5" d="M374.111,-89.5352C391.63,-90.2502 408.887,-90.9546 409.948,-90.9979"/>
</g>
<!-- junction_1&#45;&gt;dummy_0 -->
<!-- Channel\nmixer -->
<g id="node11" class="node"><title>Channel\nmixer</title>
<polygon fill="none" stroke="black" points="514.5,-201 452.5,-201 452.5,-163 514.5,-163 514.5,-201"/>
<text text-anchor="middle" x="483.5" y="-185.8">Channel</text>
<text text-anchor="middle" x="483.5" y="-170.8">mixer</text>
</g>
<!-- junction_1&#45;&gt;Channel\nmixer -->
<g id="edge12" class="edge"><title>junction_1-&gt;Channel\nmixer:w</title>
<path fill="none" stroke="#0000a0" stroke-width="5" d="M410.98,-91.5811C410.772,-98.6653 409.546,-168.345 441.56,-180.268"/>
<polygon fill="#0000a0" stroke="#0000a0" stroke-width="5" points="440.897,-184.594 451.5,-182 442.399,-175.974 440.897,-184.594"/>
</g>
<!-- junction_1&#45;&gt;Playback\nchannel ports -->
<g id="edge13" class="edge"><title>junction_1-&gt;Playback\nchannel ports</title>
<path fill="none" stroke="#0000a0" stroke-width="5" d="M411.054,-90.9624C412.17,-90.1919 430.286,-77.8054 447,-74 479.215,-66.6652 516.258,-66.2435 545.769,-67.7381"/>
<polygon fill="#0000a0" stroke="#0000a0" stroke-width="5" points="545.631,-72.1125 555.873,-68.3385 546.15,-63.378 545.631,-72.1125"/>
</g>
<!-- Master out -->
<g id="node14" class="node"><title>Master out</title>
<text text-anchor="middle" x="600.5" y="-178.3">Master out</text>
</g>
<!-- Channel\nmixer&#45;&gt;Master out -->
<g id="edge18" class="edge"><title>Channel\nmixer-&gt;Master out:w</title>
<path fill="none" stroke="#0000a0" d="M514.854,-182C525.927,-182 538.786,-182 551.212,-182"/>
<polygon fill="#0000a0" stroke="#0000a0" points="551.5,-185.5 561.5,-182 551.5,-178.5 551.5,-185.5"/>
</g>
<!-- Master gain -->
<g id="node13" class="node"><title>Master gain</title>
<text text-anchor="middle" x="41" y="-190.3">Master gain</text>
</g>
<!-- Master gain&#45;&gt;junction_2 -->
<!-- Master gain&#45;&gt;Channel\nmixer -->
<g id="edge17" class="edge"><title>Master gain:e-&gt;Channel\nmixer:n</title>
<path fill="none" stroke="#00a000" d="M90.3181,-194.114C116.615,-194.858 125.998,-199 156,-199 156,-199 156,-199 336.5,-199 398.018,-199 473.987,-259.572 482.679,-212.15"/>
<ellipse fill="#00a000" stroke="#00a000" cx="85.9996" cy="-194.055" rx="4" ry="4"/>
<polygon fill="#00a000" stroke="#00a000" points="486.182,-212.25 483.5,-202 479.205,-211.685 486.182,-212.25"/>
</g>
</g>
</svg>
